<svg width="200" height="96" viewBox="0 0 200 96" fill="none" xmlns="http://www.w3.org/2000/svg">
<g id="Layer 1">
<g id="Group">
<path id="Vector" d="M140.154 62.5994C137.45 58.5843 133.567 56.7557 128.718 57.3675C123.665 58.0087 119.967 60.7844 117.311 65.042C116.049 67.0677 115.113 69.2203 114.871 71.6244C114.685 73.4643 116.183 74.6448 117.887 73.9492C118.458 73.7158 118.992 73.3102 119.441 72.8752C121.569 70.8019 123.604 68.6289 125.783 66.61C128.946 63.6757 133.322 64.9899 134.437 69.1365C134.799 70.4756 134.758 70.5345 133.356 70.6841C132.307 70.7951 131.172 70.9401 130.684 71.9688C130.333 72.712 130.299 73.641 130.272 74.493C130.236 75.7778 131.011 76.4439 132.286 76.3442C132.912 76.2966 133.533 76.2196 134.314 76.1426C133.193 78.4175 131.795 80.1803 129.343 80.6426C128.371 80.8239 127.272 80.7219 126.314 80.4523C125.398 80.1917 124.267 79.5346 124.338 78.5399C124.406 77.5542 125.534 77.0897 126.545 76.8744C127.802 76.6048 128.659 75.848 128.967 74.6176C129.323 73.1924 129.361 71.7445 128.271 70.5662C127.102 69.3041 125.208 69.3268 123.873 70.6297C122.242 72.2249 120.64 73.854 119.076 75.5172C118.39 76.2468 117.647 76.7022 116.643 76.8631C115.485 77.0466 114.898 77.953 115.236 79.0769C115.53 80.058 115.934 81.0233 116.421 81.9251C119.917 88.3874 127.533 90.5513 133.927 86.9395C137.734 84.7869 140.244 81.5353 141.647 77.4658C143.423 72.3155 143.278 67.2422 140.151 62.6039L140.154 62.5994ZM124.882 59.2255C123.23 59.971 121.752 60.9884 120.493 62.2482C119.779 62.9619 119.135 63.755 118.58 64.607C118.535 64.6772 118.451 64.7089 118.374 64.6931C118.351 64.6908 118.329 64.6795 118.308 64.6681C118.288 64.6546 118.272 64.6387 118.261 64.6206C118.206 64.5549 118.199 64.462 118.247 64.3894C118.369 64.2014 118.496 64.0156 118.63 63.832C118.927 63.3585 119.364 62.8328 119.881 62.3071C119.883 62.3026 119.888 62.298 119.892 62.2958C119.996 62.1825 120.103 62.0715 120.212 61.965C121.508 60.6711 123.023 59.6266 124.721 58.8607C124.82 58.8154 124.94 58.8607 124.986 58.9649C124.997 58.9899 125.002 59.017 125.002 59.0442C125.002 59.119 124.959 59.1915 124.884 59.2255H124.882Z" fill="#A01E5D"/>
<path id="Vector_2" d="M153.903 55.4981C153.885 55.5071 153.862 55.5185 153.844 55.5298C153.869 55.5162 153.896 55.5003 153.923 55.489C153.916 55.4913 153.91 55.4958 153.903 55.4981ZM151.601 57.5034C151.447 57.6076 151.29 57.7164 151.136 57.8229C151.297 57.7277 151.449 57.6099 151.601 57.5034Z" fill="black"/>
<path id="Vector_3" d="M173.065 67.5232C172.925 73.6796 170.591 78.7778 165.547 82.4191C160.991 85.7091 154.662 86.0807 150.074 82.3284C147.706 80.3934 146.144 77.8941 145.499 74.8782C145.206 73.5142 145.82 72.5942 147.219 72.388C148.116 72.2543 148.78 71.8193 149.389 71.1916C150.701 69.8389 152.099 68.5632 153.355 67.1606C154.864 65.4748 156.826 65.28 158.822 65.4363C160.653 65.5791 161.881 67.7996 161.46 69.8434C161.086 71.6607 159.842 72.7506 157.952 72.8276C156.602 72.882 155.573 73.4371 154.775 74.5157C154.476 74.9167 154.519 75.1864 154.825 75.5489C156.432 77.4477 159.332 77.7831 161.521 76.2513C163.782 74.6698 164.833 72.388 165.176 69.7233C165.4 67.9854 165.287 66.2724 164.7 64.6206C163.406 60.9793 159.457 59.7331 156.447 62.1689C154.453 63.78 152.722 65.7173 150.867 67.5005C150.352 67.9967 149.842 68.5111 149.267 68.9326C147.973 69.8774 146.276 69.5806 145.743 68.2664C145.519 67.718 145.499 66.9907 145.637 66.4061C146.924 61.0088 149.942 56.8237 155.011 54.5352C162.506 51.1477 169.039 54.4831 171.874 61.1493C172.739 63.184 173.065 65.3207 173.07 67.5277L173.065 67.5232Z" fill="#A01E5D"/>
<path id="Vector_4" d="M151.601 57.5034C151.447 57.6122 151.297 57.73 151.136 57.8229C151.29 57.7164 151.447 57.6076 151.601 57.5034Z" fill="white"/>
<path id="Vector_5" d="M198.242 56.3183C195.858 51.8251 191.582 49.5003 186.627 50.0645C183.654 50.3999 180.688 50.8145 177.72 51.1861C176.188 51.3787 175.866 51.7322 175.868 53.2707V66.9702H175.857V73.82C175.857 76.104 175.857 78.388 175.855 80.6697C175.855 82.5164 176.401 82.9787 178.229 82.7272C180.62 82.4009 183.01 82.0904 185.403 81.7891C189.516 81.2702 193.019 79.6093 195.661 76.3329C198.325 73.0269 199.746 69.2497 199.968 65.0125C200.127 61.9649 199.687 59.0419 198.239 56.3161L198.242 56.3183ZM189.21 72.431C187.728 73.7362 186.058 74.3162 184.13 74.3547C183.45 74.3683 183.194 74.1327 183.203 73.4303C183.237 70.9605 183.212 68.4884 183.217 66.0186C183.223 63.6009 183.237 61.1832 183.246 58.7655C183.246 58.5049 183.246 58.2443 183.246 57.8546C184.626 57.7594 185.877 57.5419 187.107 57.6144C189.402 57.7504 190.961 59.051 191.745 61.1719C192.842 64.1334 192.559 69.4854 189.208 72.431H189.21Z" fill="#A01E5D"/>
<path id="Vector_6" d="M183.232 10.7969C184.44 9.06347 185.643 7.32554 186.855 5.59441C187.662 4.44335 188.487 3.30361 189.284 2.14801C189.914 1.23713 190.651 0.618544 191.861 0.559632C193.152 0.496187 194.433 0.226547 195.715 0.0294161C196.379 -0.0725484 196.934 0.0634043 197.308 0.657064C197.691 1.26659 197.634 1.88744 197.235 2.44711C196.216 3.87008 195.167 5.27492 194.129 6.6843C192.038 9.52571 189.946 12.3671 187.787 15.3014C188.58 16.3755 189.362 17.4699 190.179 18.5371C192.375 21.4034 194.537 24.2947 196.807 27.0999C198.291 28.933 197.872 30.3219 195.445 30.5984C194.183 30.7411 192.914 30.8771 191.666 31.1105C190.594 31.3121 189.917 30.8952 189.305 30.0636C187.404 27.476 185.46 24.9201 183.529 22.3551C183.427 22.2192 183.309 22.0968 183.069 21.8158C183.069 23.1096 183.069 24.2109 183.069 25.3143C183.067 27.0681 183.071 28.8197 183.051 30.5735C183.04 31.5886 182.614 32.0508 181.592 32.2026C180.148 32.4179 178.705 32.6195 177.259 32.8235C176.292 32.9617 175.735 32.4745 175.71 31.4141C175.687 30.5123 175.723 29.6082 175.723 28.7064C175.73 20.5266 175.735 12.3467 175.739 4.16691C175.739 2.79379 176.054 2.42445 177.402 2.24998C178.714 2.0823 180.024 1.88744 181.343 1.76961C182.65 1.65405 183.067 2.05964 183.074 3.39651C183.085 5.65333 183.069 7.91241 183.065 10.1692C183.065 10.3505 183.065 10.534 183.065 10.7153C183.121 10.7425 183.178 10.7674 183.232 10.7946V10.7969Z" fill="black"/>
<path id="Vector_7" d="M101.407 80.2574C101.407 82.2196 101.407 84.1003 101.407 85.9832C101.407 87.4968 101.412 89.0104 101.407 90.524C101.403 91.4508 101.133 91.8768 100.224 92.0286C98.6563 92.2914 97.077 92.4908 95.4954 92.6426C94.648 92.7242 94.1631 92.2257 94.0815 91.376C94.0634 91.1925 94.0679 91.0044 94.0679 90.8186C94.0679 81.7642 94.0679 72.7074 94.0679 63.653C94.0679 61.9287 94.3919 61.6228 96.1208 61.4098C101.092 60.7957 106.061 60.1567 111.028 59.5087C112.752 59.2844 113.312 59.7489 113.294 61.5117C113.28 62.7852 113.273 64.0609 113.226 65.3343C113.192 66.2565 112.823 66.7029 111.909 66.8366C109.628 67.1696 107.341 67.4619 105.055 67.7633C104.058 67.8947 103.059 68.0284 102.057 68.119C101.545 68.1666 101.398 68.4023 101.409 68.8872C101.434 69.8683 101.403 70.8517 101.412 71.8351C101.418 72.6689 101.708 72.968 102.531 72.8729C104.346 72.6621 106.154 72.4061 107.965 72.1682C108.753 72.0662 109.539 71.9461 110.33 71.8691C111.227 71.783 111.894 72.3381 111.914 73.2445C111.948 74.7037 111.941 76.1652 111.916 77.6267C111.903 78.4582 111.415 78.9567 110.514 79.0746C107.858 79.4212 105.2 79.743 102.545 80.0783C102.205 80.1214 101.865 80.1848 101.412 80.2574H101.407Z" fill="#A01E5D"/>
<path id="Vector_8" d="M115.739 35.615C116.387 36.3424 116.428 36.655 115.789 37.3008C110.591 42.5599 102.993 43.0924 97.6684 38.8484C94.6797 36.467 93.0437 33.229 92.6903 29.4654C92.0875 23.0054 94.3919 17.6874 99.5151 13.6994C102.372 11.4766 105.699 10.4592 109.338 10.7221C111.606 10.8852 113.67 11.7032 115.494 13.0695C116.441 13.7787 116.457 14.1141 115.77 15.0363C114.692 16.4797 113.616 17.9276 112.535 19.3709C112.363 19.5998 112.163 19.806 111.946 20.0575C108.413 17.7372 105.23 18.0182 102.656 20.8347C101.69 21.8906 101.047 23.1346 100.696 24.5213C100.193 26.5152 100.283 28.4775 101.19 30.3378C103.054 34.1535 107.611 34.9692 110.815 32.0938C111.853 31.1626 111.839 31.1716 112.739 32.2162C113.727 33.3627 114.733 34.4911 115.739 35.6195V35.615Z" fill="black"/>
<path id="Vector_9" d="M171.783 30.6528C167.806 34.7177 161.725 36.0478 156.767 33.8069C152.493 31.8741 150.169 28.3665 149.228 23.8732C149.013 22.84 148.954 21.775 148.823 20.7237C148.932 13.8603 153.076 7.41844 159.196 4.99848C163.392 3.33986 167.5 3.53699 171.309 6.21073C172.399 6.97659 172.445 7.33234 171.656 8.3905C170.562 9.85879 169.481 11.3361 168.402 12.8158C168.135 13.1851 167.92 13.3936 167.457 13.0106C165.169 11.1186 162.019 11.6216 160.014 13.1488C156.735 15.6413 155.695 20.6285 157.755 24.1905C159.536 27.2698 163.542 27.9949 166.44 25.7585C166.501 25.7109 166.56 25.6565 166.623 25.6044C167.988 24.4737 167.976 24.485 169.111 25.8196C169.988 26.8506 170.906 27.8499 171.808 28.8582C172.528 29.6626 172.526 29.8914 171.783 30.6528Z" fill="black"/>
<path id="Vector_10" d="M119.53 24.4919C119.53 20.0281 119.53 15.5643 119.53 11.1005C119.53 9.54616 119.822 9.24706 121.333 9.07259C122.57 8.92984 123.805 8.76896 125.033 8.5605C126.418 8.32485 126.966 8.72138 126.98 10.1625C127.007 13.1648 126.996 16.1671 126.998 19.1693C126.998 22.6225 126.998 26.078 126.998 29.5335C126.998 31.1264 127.299 31.4209 128.897 31.2261C130.501 31.0312 132.098 30.7865 133.694 30.5237C134.808 30.3401 135.533 30.8499 135.558 31.9784C135.588 33.4398 135.574 34.9013 135.558 36.3628C135.545 37.4459 135.089 37.9693 134.006 38.1143C130.748 38.5562 127.485 38.9754 124.224 39.4036C123.225 39.5351 122.226 39.6506 121.229 39.7956C120.175 39.9497 119.536 39.4535 119.518 38.3659C119.493 37.0109 119.523 35.6559 119.525 34.3009C119.525 31.0335 119.525 27.7638 119.525 24.4964H119.532L119.53 24.4919Z" fill="black"/>
<path id="Vector_11" d="M138.846 22.1014C138.846 17.5877 138.846 13.0741 138.846 8.56048C138.846 7.23041 139.152 6.86561 140.448 6.66394C141.728 6.46455 143.006 6.26515 144.291 6.09521C145.673 5.91167 146.219 6.4011 146.219 7.79235C146.219 16.8468 146.217 25.899 146.21 34.9534C146.21 36.1974 145.771 36.6687 144.536 36.8183C143.271 36.9723 142.007 37.1264 140.745 37.2964C139.333 37.4867 138.83 37.063 138.828 35.64C138.826 31.1264 138.828 26.6127 138.828 22.0991H138.846V22.1014Z" fill="black"/>
<path id="Vector_12" d="M164.752 45.6166C163.463 45.6166 162.763 44.9844 162.64 43.9399C162.509 42.8047 163.141 41.8077 164.222 41.6219C165.681 41.3681 167.154 41.1891 168.624 40.9965C172.25 40.5252 175.877 40.0561 179.505 39.6052C183.609 39.0931 187.712 38.606 191.816 38.0984C192.842 37.9715 193.864 37.8311 194.886 37.6747C196.096 37.4866 197.086 38.0803 197.338 39.1679C197.589 40.2691 196.93 41.4043 195.738 41.6083C193.492 41.9912 191.229 42.2676 188.97 42.5599C183.579 43.2556 178.186 43.9376 172.796 44.6196C170.034 44.9686 167.269 45.3062 164.752 45.6166Z" fill="#A01E5D"/>
<path id="Vector_13" d="M96.2974 54.2021C95.0126 54.2179 94.2422 53.5858 94.104 52.5253C93.9613 51.4286 94.5459 50.4339 95.6221 50.2526C97.5799 49.9196 99.558 49.693 101.529 49.4369C104.76 49.02 107.992 48.6144 111.223 48.2088C114.325 47.8191 117.427 47.4362 120.526 47.0396C121.866 46.8697 123.202 46.693 124.537 46.489C125.856 46.2896 126.733 46.872 126.966 48.1431C127.174 49.2761 126.424 50.3388 125.181 50.5336C123.531 50.7919 121.868 50.9755 120.211 51.1862C114.007 51.9792 107.804 52.7723 101.597 53.5608C99.7846 53.792 97.9673 54.0004 96.2974 54.1998V54.2021Z" fill="#A01E5D"/>
<path id="Vector_14" d="M147.472 50.9142C145.179 50.887 143.357 49.3145 143.074 46.9172C142.703 43.7767 144.948 40.6362 147.903 40.2714C150.561 39.9428 152.793 41.6218 153.098 44.3114C153.495 47.7805 150.79 50.9527 147.472 50.9142ZM146.004 45.7752C145.997 46.9081 146.781 47.8122 147.792 47.8326C148.977 47.8553 150.157 46.6521 150.182 45.3945C150.203 44.3318 149.301 43.3824 148.261 43.3688C147.064 43.3552 146.013 44.4746 146.006 45.7752H146.004Z" fill="#A01E5D"/>
<path id="Vector_15" d="M139.036 44.5449C139.036 46.591 139.043 48.6053 139.034 50.6197C139.03 51.4762 138.608 52.02 137.87 52.1922C136.873 52.4211 136.172 51.9339 136.147 50.9097C136.107 49.2375 136.129 47.5653 136.127 45.8931C136.127 45.6076 136.127 45.3221 136.127 44.9459C135.533 45.0184 135.044 45.0887 134.55 45.134C133.682 45.2133 133.118 44.8553 132.98 44.1529C132.785 43.1786 133.211 42.3606 134.117 42.1861C135.286 41.9618 136.474 41.8394 137.654 41.6763C138.52 41.5562 139.388 41.4406 140.256 41.3296C141.191 41.2095 141.828 41.5992 142.023 42.4082C142.215 43.2035 141.756 43.9557 140.881 44.2209C140.582 44.3115 140.258 44.3138 139.947 44.3659C139.666 44.4135 139.385 44.4792 139.041 44.5494L139.036 44.5449Z" fill="#A01E5D"/>
<path id="Vector_16" d="M154.658 55.4142C154.658 55.4867 154.617 55.557 154.547 55.591C153.953 55.8855 153.38 56.2232 152.836 56.5993C152.319 56.9573 151.823 57.3516 151.358 57.7753C151.277 57.8478 151.154 57.8433 151.08 57.7662C151.003 57.6847 151.007 57.5555 151.089 57.4807C151.565 57.0457 152.077 56.6378 152.609 56.2707C153.169 55.8855 153.76 55.5366 154.37 55.2352C154.469 55.1877 154.59 55.2284 154.637 55.3304C154.651 55.3599 154.655 55.3871 154.655 55.4165L154.658 55.4142Z" fill="white"/>
<path id="Vector_17" d="M191.113 71.2459C191.113 71.2776 191.104 71.3071 191.084 71.3343C190.807 71.7263 190.502 72.1002 190.171 72.4468C189.853 72.7777 189.511 73.0903 189.147 73.3713C189.076 73.4257 188.974 73.4121 188.92 73.3396C188.868 73.2694 188.881 73.1719 188.949 73.1198C189.301 72.8479 189.634 72.5465 189.94 72.227C190.259 71.8917 190.556 71.5314 190.821 71.153C190.871 71.0805 190.968 71.0624 191.039 71.1122C191.084 71.1417 191.111 71.1961 191.111 71.2459H191.113Z" fill="white"/>
<path id="Vector_18" d="M130.94 72.9613C130.848 72.9409 130.795 72.8457 130.823 72.7551C130.893 72.5262 130.997 72.3177 131.135 72.1319C131.466 71.6878 131.894 71.5134 132.239 71.3729C132.76 71.1599 133.32 71.0511 133.909 71.0534C133.997 71.0534 134.07 71.1304 134.065 71.2188C134.063 71.3049 133.99 71.3729 133.904 71.3706C133.358 71.3706 132.839 71.4703 132.359 71.6674C132.035 71.7989 131.668 71.9507 131.391 72.3223C131.274 72.4809 131.185 72.6576 131.126 72.8525C131.104 72.9318 131.022 72.9771 130.94 72.959V72.9613Z" fill="white"/>
<path id="Vector_19" d="M102.239 12.9087C102.239 12.9812 102.198 13.0515 102.128 13.0854C100.999 13.6429 99.9523 14.3317 99.0097 15.1406C98.407 15.6572 96.864 17.1164 95.5429 19.473C95.0286 20.3952 94.5935 21.3672 94.2559 22.3687C94.2219 22.473 94.1109 22.5274 94.0067 22.4956C93.9002 22.4616 93.8435 22.3484 93.8775 22.2419C94.2242 21.2177 94.666 20.2207 95.194 19.2781C96.5467 16.8649 98.1283 15.3672 98.7469 14.837C99.7122 14.0077 100.788 13.2984 101.949 12.7274C102.048 12.6776 102.168 12.7206 102.216 12.8226C102.23 12.8498 102.234 12.8793 102.234 12.9087H102.239Z" fill="white"/>
<path id="Vector_20" d="M158.224 6.35121C158.224 6.42372 158.185 6.49396 158.115 6.53022C156.993 7.10348 155.956 7.80817 155.027 8.62842C154.431 9.1541 152.908 10.6337 151.621 13.0106C151.118 13.9396 150.699 14.9185 150.375 15.9245C150.341 16.0288 150.232 16.0854 150.128 16.0537C150.021 16.0197 149.962 15.9087 149.994 15.8022C150.327 14.7712 150.756 13.7697 151.27 12.8203C152.589 10.3867 154.15 8.8686 154.762 8.32932C155.716 7.48642 156.783 6.76134 157.934 6.17447C158.031 6.12462 158.154 6.16541 158.203 6.26511C158.217 6.2923 158.224 6.32176 158.224 6.35121Z" fill="white"/>
<g id="Group_2">
<path id="Vector_21" d="M60.5374 67.5957L68.2278 70.7158C61.2874 80.9304 50.2299 88.3307 37.7925 89.8194C16.8535 92.3255 -0.0635109 77.1328 -6.62689e-05 55.8902C0.0656442 34.643 17.0892 15.3899 38.0282 12.8838C49.3802 11.5243 59.554 15.3695 66.4785 22.5614C68.119 24.2698 69.5805 26.1618 70.829 28.2238C70.8449 28.2487 70.8607 28.2736 70.8766 28.3008L63.0299 32.2367L54.2179 36.6574L46.2964 40.6317C45.9338 40.344 45.5531 40.0789 45.1521 39.8432C43.6679 38.955 41.9481 38.4157 40.0811 38.316C40.072 38.316 40.0675 38.3115 40.0584 38.316C38.2253 38.1642 36.3469 38.4678 34.5772 39.1816C34.5659 39.1816 34.5591 39.1861 34.5546 39.1861C32.0961 40.1808 29.4473 41.8961 27.732 44.2707C27.5938 44.4656 27.4646 44.6559 27.3378 44.8508C24.9201 48.0298 23.8347 51.9589 23.8234 56.042C23.8075 61.2603 26.1618 65.6312 29.8597 68.2279C29.8597 68.2279 29.8755 68.2415 29.905 68.2664C30.9405 68.9824 32.0712 69.5625 33.2879 69.9862C33.3265 69.9975 33.365 70.0134 33.4035 70.0247C34.4775 70.394 35.615 70.6342 36.8023 70.7385C36.8137 70.743 36.8227 70.7475 36.834 70.7453C38.3273 70.9129 40.072 70.9424 42.0818 70.7271C36.3446 72.6441 30.1338 72.107 25.2169 68.7082C16.4706 62.6606 15.0703 49.838 22.0809 40.1196C28.3982 31.3688 39.3945 28.0652 47.9051 31.8832C47.9776 31.9149 48.0479 31.9489 48.1204 31.9806L48.1884 31.9444L56.0147 27.8137L58.1242 26.7555C58.1106 26.7396 58.097 26.7283 58.0835 26.7215L58.122 26.7011C57.5759 26.2502 57.0162 25.8265 56.4316 25.4209C50.7624 21.5009 43.9149 20.198 37.1558 21.2222C36.8748 21.2607 36.5939 21.3083 36.3129 21.3582C36.1271 21.3922 35.9413 21.4262 35.7555 21.4624C35.4972 21.5145 35.2411 21.5666 34.9851 21.6256C34.7902 21.6686 34.5999 21.7117 34.405 21.7615C34.396 21.7615 34.3869 21.7615 34.3778 21.7683C34.2804 21.791 34.1807 21.8159 34.0833 21.8408C34.013 21.8567 33.9451 21.8771 33.8748 21.8952C33.6528 21.9518 33.4352 22.013 33.2154 22.0742C33.1973 22.0742 33.1815 22.081 33.1633 22.0878C32.6354 22.2373 32.112 22.4027 31.5953 22.584C30.9269 22.8083 30.2698 23.0598 29.6195 23.3363C29.3589 23.4473 29.0983 23.5606 28.8378 23.6762C27.9246 24.084 27.0296 24.5372 26.1572 25.0289C26.0326 25.0991 25.9057 25.1716 25.7834 25.2442C25.6451 25.3235 25.5115 25.4028 25.3755 25.4843C25.2622 25.5501 25.1489 25.618 25.0379 25.6883C24.8634 25.7948 24.6889 25.9013 24.5167 26.0123C24.1021 26.2751 23.6942 26.547 23.2886 26.8348C23.1323 26.9436 22.9759 27.0546 22.8219 27.1702C22.6859 27.2676 22.5522 27.3673 22.4208 27.467C20.5786 28.8424 18.8384 30.4262 17.2501 32.2095C17.1368 32.3318 17.0257 32.461 16.917 32.5856C16.7924 32.7283 16.6677 32.8756 16.5431 33.0206C16.3981 33.1929 16.2531 33.3673 16.1103 33.5418C15.9472 33.7367 15.7908 33.9361 15.6368 34.1377C15.4804 34.3371 15.3286 34.5388 15.1768 34.7427C15.1723 34.7495 15.1655 34.7586 15.1609 34.7631C15.0408 34.924 14.923 35.0871 14.8074 35.2503C14.7077 35.3908 14.6081 35.5312 14.5106 35.6717C14.4993 35.6876 14.488 35.7034 14.4789 35.7193C14.3497 35.9074 14.2229 36.0932 14.0982 36.2812C13.9872 36.4467 13.8784 36.6143 13.7719 36.782C13.7176 36.8613 13.6654 36.9451 13.6179 37.0245C13.5431 37.1423 13.4683 37.2646 13.3958 37.3825C13.3641 37.43 13.3346 37.4799 13.3074 37.5297C13.2077 37.6952 13.1103 37.8583 13.0129 38.0237C12.7818 38.4112 12.5642 38.8077 12.3512 39.2042C12.3467 39.2133 12.3399 39.2201 12.3376 39.2269C12.1654 39.5532 11.9955 39.8817 11.8346 40.2125C11.8301 40.2216 11.8233 40.2329 11.8188 40.242C11.6012 40.6816 11.395 41.1257 11.1979 41.5766C11.0642 41.8802 10.9373 42.1839 10.8127 42.4898C10.8104 42.4966 10.8082 42.5011 10.8036 42.5101C10.602 43.0041 10.4162 43.5026 10.2394 44.0034C10.1805 44.1756 10.1193 44.3455 10.065 44.5154C9.38293 46.5389 8.89804 48.6325 8.63066 50.7715C8.53776 51.4966 8.46979 52.2217 8.43127 52.9558C8.4222 53.0918 8.41541 53.2255 8.41087 53.3637C8.40181 53.5291 8.39728 53.6923 8.39275 53.8577C8.38368 54.1092 8.38142 54.363 8.37915 54.6122C8.37915 54.9793 8.38142 55.3441 8.39501 55.7021C8.40181 55.8834 8.41087 56.0646 8.41767 56.2436C8.43353 56.5586 8.45393 56.8735 8.47885 57.1817C8.49018 57.2905 8.49698 57.397 8.50831 57.5057C8.51964 57.6168 8.5287 57.7278 8.54229 57.8343C8.56042 58.0133 8.57855 58.19 8.60347 58.369C8.62387 58.539 8.64652 58.7044 8.66918 58.8721C8.68504 58.9785 8.70091 59.0873 8.71677 59.1938C8.73943 59.3456 8.76435 59.4974 8.79154 59.6492C8.8142 59.792 8.83912 59.9348 8.86632 60.0775C8.90257 60.2769 8.94335 60.4786 8.98641 60.6757C9.01133 60.8003 9.03626 60.9227 9.06571 61.0496C9.07478 61.0949 9.08384 61.1425 9.09743 61.19C9.12463 61.3147 9.15408 61.4393 9.1858 61.5639C9.21979 61.7203 9.26058 61.8743 9.30363 62.0307C9.33988 62.187 9.38294 62.3411 9.42825 62.4975C9.55514 62.9597 9.69789 63.4151 9.84971 63.866C9.94941 64.1674 10.0559 64.4665 10.1669 64.7588C10.1715 64.7769 10.1783 64.7951 10.1851 64.8109C10.4003 65.3797 10.6337 65.9393 10.8875 66.4854C10.9509 66.6282 11.0166 66.7686 11.0846 66.9069C11.1526 67.0473 11.2183 67.1856 11.2908 67.3215C11.3588 67.462 11.4268 67.5979 11.5015 67.7339C11.5718 67.8699 11.6443 68.0058 11.7213 68.1395C11.7938 68.2754 11.8686 68.4091 11.9456 68.5406C12.2311 69.0436 12.537 69.5375 12.8588 70.0179C12.9562 70.1629 13.0514 70.3057 13.1511 70.4484C13.3618 70.7543 13.5816 71.0557 13.8082 71.348C13.9124 71.4839 14.0167 71.6176 14.1254 71.749C14.1594 71.7966 14.1979 71.8442 14.2364 71.8895C14.5265 72.2475 14.8233 72.5987 15.1315 72.9386C15.2334 73.0519 15.3377 73.1652 15.4419 73.2762C15.7523 73.6116 16.0763 73.9356 16.4072 74.2506C16.781 74.604 17.1617 74.9507 17.556 75.2793C17.6874 75.3926 17.8188 75.5013 17.9525 75.6078C18.0839 75.7189 18.2176 75.8253 18.3558 75.925C18.4895 76.0315 18.6277 76.1358 18.7659 76.2355C18.9019 76.3397 19.0424 76.4394 19.1829 76.5391C19.2667 76.6003 19.3505 76.6592 19.4321 76.7158C19.491 76.7544 19.5477 76.7951 19.6066 76.8314C19.7765 76.9515 19.9487 77.0648 20.1232 77.1735C20.1527 77.1917 20.1821 77.2121 20.2138 77.2347C20.386 77.3457 20.5582 77.45 20.7327 77.5542C20.735 77.5565 20.7418 77.5587 20.7486 77.5633C20.9321 77.672 21.1134 77.7808 21.3015 77.885C21.3128 77.8941 21.3264 77.9009 21.3422 77.91C21.4397 77.9643 21.5348 78.0187 21.6323 78.0708C21.9382 78.2385 22.2509 78.4017 22.5658 78.558C22.7108 78.6305 22.8581 78.7008 23.0077 78.771C23.3 78.907 23.5991 79.0384 23.8982 79.1675C24.0318 79.2242 24.1701 79.2831 24.306 79.3352C28.3506 80.9757 32.9435 81.626 37.8197 81.0414C43.3734 80.3775 48.5758 78.2 53.0215 74.9598C53.1529 74.8646 53.2866 74.7672 53.4157 74.6675C53.529 74.5882 53.6401 74.5043 53.7534 74.416C56.2526 72.5149 58.548 70.2332 60.5374 67.5911V67.5957Z" fill="black"/>
<path id="Vector_22" d="M71.6675 33.2472L71.5655 66.5692L71.5361 66.5579L70.879 66.2905L63.3245 63.227L55.1945 59.9302L48.1681 57.0774L35.4746 51.9294L49.4324 44.7239L56.7897 40.9263L65.314 36.5259L71.6675 33.2472Z" fill="#A01E5D"/>
</g>
<path id="Vector_23" d="M84.9002 7.39575H81.4084V95.6789H84.9002V7.39575Z" fill="#231F20"/>
</g>
</g>
</svg>
